/* XPM */
static const char *collect[] = {
/* columns rows colors chars-per-pixel */
"32 32 26 1 ",
"  c #C9810E",
". c #CB820E",
"X c #D3870F",
"o c #D88B0F",
"O c #DB8C0F",
"+ c #E39110",
"@ c #E59310",
"# c #EB9611",
"$ c #ED9811",
"% c #F39C12",
"& c #F39D17",
"* c #F3A121",
"= c #F3A327",
"- c #F3A52C",
"; c #F3A936",
": c #F3AB3C",
"> c #F3AE46",
", c #F3B04B",
"< c #F3B251",
"1 c #F3B456",
"2 c #F3B65B",
"3 c #F2BA65",
"4 c #F3BA65",
"5 c #F2B966",
"6 c #F3BA66",
"7 c magenta",
/* pixels */
"77777777777777777777777777777777",
"77777777777777777777777777777777",
"77777777777777777777777777777777",
"77777777777777777777777777777777",
"77777777777777777777777777777777",
"77777777777777777777777777777777",
"77777777777777777777777777777777",
"77777777777777777777777777777777",
"77777777777777777777777777777777",
"77777777777773333337777777777777",
"777777777773<%%%%%=3777777777777",
"77777777773:%%%%%%%%377777777777",
"77777777772%%o    #%&37777777777",
"7777777773%%O  @X  %%17777777777",
"7777777773%%   %%  o%=3777777777",
"7777777773%%   %%   %%3777777777",
"7777777773%%   %%   %%3777777777",
"7777777773%%   %$  @%;3777777777",
"7777777773*%$      %%37777777777",
"77777777773%%%X  +%%:37777777777",
"777777777733%%%%%%%>377777777777",
"7777777777773,&%%-33777777777777",
"77777777777777333377777777777777",
"77777777777777777777777777777777",
"77777777777777777777777777777777",
"77777777777777777777777777777777",
"77777777777777777777777777777777",
"77777777777777777777777777777777",
"77777777777777777777777777777777",
"77777777777777777777777777777777",
"77777777777777777777777777777777",
"77777777777777777777777777777777"
};
