/* XPM */
static const char *collect[] = {
/* columns rows colors chars-per-pixel */
"32 32 55 1 ",
"  c #C8800E",
". c #C8810E",
"X c #C9810E",
"o c #CD830E",
"O c #CD840E",
"+ c #CE840E",
"@ c #CF850E",
"# c #CF850F",
"$ c #D1860F",
"% c #D3880F",
"& c #D5890F",
"* c #D6890F",
"= c #D78A0F",
"- c #D88A0F",
"; c #E69410",
": c #E79411",
"> c #E99511",
", c #EA9611",
"< c #EC9711",
"1 c #ED9811",
"2 c #EF9911",
"3 c #EF9912",
"4 c #F09A11",
"5 c #F19A11",
"6 c #F29B11",
"7 c #F39B11",
"8 c #F39C11",
"9 c #F39C12",
"0 c #F39C13",
"q c #F3A01C",
"w c #F3A223",
"e c #F3A224",
"r c #F3A324",
"t c #F3A325",
"y c #F3A326",
"u c #F3A327",
"i c #F3A427",
"p c #F3A428",
"a c #F3A42A",
"s c #F3AA3B",
"d c #F3AB3C",
"f c #F3AB3E",
"g c #F3AC3F",
"h c #F3B353",
"j c #F3B454",
"k c #F3B558",
"l c #F3B559",
"z c #F3B65C",
"x c #F3B75E",
"c c #F3B75F",
"v c #F3B85F",
"b c #F3B860",
"n c #F3BA65",
"m c #F3BA66",
"M c None",
/* pixels */
"MMMMMMMMMMMMMMMMMMMMMMMMMMMMMMMM",
"MMMMMMMMMMMMMMMMMMMMMMMMMMMMMMMM",
"MMMMMMMMMMMMMMMMMMMMMMMMMMMMMMMM",
"MMMMMMMMMMMMMMMMMMMMMMMMMMMMMMMM",
"MMMMMMMMMMMMMMMMMMMMMMMMMMMMMMMM",
"MMMMMMMMMMMMMMMMMMMMMMMMMMMMMMMM",
"MMMMMMMMMMMMMMMMMMMMMMMMMMMMMMMM",
"MMMMMMMMMMMMMMMMMMMMMMMMMMMMMMMM",
"MMMMMMMMMMMMMMMMMMMMMMMMMMMMMMMM",
"MMMMMMMMMMMMMmbxxbmMMMMMMMMMMMMM",
"MMMMMMMMMMMMlfaeeaflMMMMMMMMMMMM",
"MMMMMMMMMMMje944449ejMMMMMMMMMMM",
"MMMMMMMMMMxa9,-$$*;4axMMMMMMMMMM",
"MMMMMMMMMmg9,#X%%X#,9gmMMMMMMMMM",
"MMMMMMMMMxe4-Xo<<oX-4evMMMMMMMMM",
"MMMMMMMMMxq3#X#33#X#3qxMMMMMMMMM",
"MMMMMMMMMxq3#X#33#X#3qxMMMMMMMMM",
"MMMMMMMMMxe4*X#33oX*4exMMMMMMMMM",
"MMMMMMMMMmf9;#X**Xo;9fmMMMMMMMMM",
"MMMMMMMMMMle4;*##*;4elMMMMMMMMMM",
"MMMMMMMMMMMhe943349ehMMMMMMMMMMM",
"MMMMMMMMMMMMlswqqwslMMMMMMMMMMMM",
"MMMMMMMMMMMMMmxxxxmMMMMMMMMMMMMM",
"MMMMMMMMMMMMMMMMMMMMMMMMMMMMMMMM",
"MMMMMMMMMMMMMMMMMMMMMMMMMMMMMMMM",
"MMMMMMMMMMMMMMMMMMMMMMMMMMMMMMMM",
"MMMMMMMMMMMMMMMMMMMMMMMMMMMMMMMM",
"MMMMMMMMMMMMMMMMMMMMMMMMMMMMMMMM",
"MMMMMMMMMMMMMMMMMMMMMMMMMMMMMMMM",
"MMMMMMMMMMMMMMMMMMMMMMMMMMMMMMMM",
"MMMMMMMMMMMMMMMMMMMMMMMMMMMMMMMM",
"MMMMMMMMMMMMMMMMMMMMMMMMMMMMMMMM"
};
