/* XPM */
static const char *exit[] = {
/* columns rows colors chars-per-pixel */
"32 32 89 1 ",
"  c #209250",
". c #209350",
"X c #219752",
"o c #219753",
"O c #219853",
"+ c #219953",
"@ c #219954",
"# c #229A54",
"$ c #229B54",
"% c #229B55",
"& c #229C55",
"* c #229C56",
"= c #23A058",
"- c #23A158",
"; c #23A259",
": c #23A359",
"> c #24A359",
", c #23A45A",
"< c #24A45A",
"1 c #24A55A",
"2 c #24A55B",
"3 c #24A65B",
"4 c #24A75B",
"5 c #24A75C",
"6 c #24A85C",
"7 c #25A85C",
"8 c #25A95C",
"9 c #25A95D",
"0 c #25AA5D",
"q c #25AA5E",
"w c #26AA5E",
"e c #26AB5E",
"r c #26AC5E",
"t c #26AC5F",
"y c #26AD5F",
"u c #27AD5F",
"i c #27AD60",
"p c #26AE60",
"a c #27AE60",
"s c #27AF60",
"d c #27AE61",
"f c #27AF61",
"g c #28AF61",
"h c #27B061",
"j c #27B062",
"k c #27B162",
"l c #28B061",
"z c #28B062",
"x c #28B162",
"c c #28B262",
"v c #28B263",
"b c #28B363",
"n c #29B363",
"m c #28B463",
"M c #29B463",
"N c #29B464",
"B c #28B564",
"V c #29B564",
"C c #28B664",
"Z c #29B664",
"A c #29B665",
"S c #28B765",
"D c #29B765",
"F c #29B865",
"G c #29B866",
"H c #29B966",
"J c #29BA66",
"K c #29BB67",
"L c #2ABA66",
"P c #2ABA67",
"I c #2ABB67",
"U c #2ABC67",
"Y c #2ABC68",
"T c #2ABD68",
"R c #2ABE68",
"E c #2ABE69",
"W c #2BBE69",
"Q c #2ABF69",
"! c #2BBF69",
"~ c #2BC06A",
"^ c #2BC26B",
"/ c #2CC46C",
"( c #2CC56D",
") c #2CC66D",
"_ c #2DC76E",
"` c #2DC86E",
"' c #2DC86F",
"] c #2DC96F",
"[ c #2DCA70",
/* pixels */
"xGRRRUMf<<<<<<<<<<<<6x6<<<<<<<fx",
"GRRURRRAt6666<<<<<<6xx66665<,<6x",
"RRR/[]]]]//]/6<<<<6/[]]]]]//A<6A",
"RU//6=$$$$$$*<<<<<6*$$$***=6/GtU",
"RR[<.X$$++$++<5<<6x$+$++++X.<]xA",
"GR]$$MUMxxxf6<<<6xUUGGGx6<=+$]xx",
"xR]$$UAxxxxxxttfxGRRRRRGxt6+$]66",
"6M]$+xf6<6xxxxxxxMRRRRRAxxx+$]6<",
"<6]$$f5<<<txxxxxxxARRRAxxx6+*]6<",
"<6/$+<<<<<<fxxf66txAGAxxx6<+*]6<",
"<6]$$6<<<<<fx6<<<<6xxxxx6<<+*]6<",
"<6]$$f<<<<6x6<<<55<6xxxf<<<+$]6<",
"<6/*$xf<5tx6<<<<<<5<6xx6<<<$*/6<",
"<<6<6xxhxx6<<<<<<<<5<6x6<<<<<65<",
"<<<<fxxxxt<5<<<<<<<<<<fx6<<<<<<<",
"<<<txxxxx6<5<<<<<5<<<<6xf<<<<<<<",
"<<txxxxxx6<<<<<<<<<<5<6xxf<<<<<<",
"<txxxt6fxx5<<<<<<<<5<<fxxxf<<<<<",
"txxx6<<<6xf<<<<<<555<txxAAxf<6<<",
"xM/*+<<<<5xf<<<<<55<txxGRRA$*/ff",
"xA]$+<<<<<6xt<<<<<<txxGRRRU+$]Ax",
"xA]*+<5<<<<txt<<<5txxGRRRRG$$]xx",
"xx]*+<<<<<<hxxf6txxxGRRRRRG$$]xx",
"xx]$+<<<<<txxxxxxxxxGRRRRRG$$]xx",
"xx]$+<<<<6xxxxxxxxxxxRRRRRG$$]Mx",
"Ax]$+6<<6xxxxftfxxxxxARRRRR$$]RR",
"RG/$+tf6hxxx6<<<txxxxgMGGRA+$]RR",
"RR[<.+$$$+$++<5<<tx$+++$$$+.<[RR",
"RU^/>$$$$$$$*<<<<<6*$$$$$$$>//UR",
"RGxR]]]]]//]/6<<<<6/]]]]]//]^GRR",
"AxxxxxxAt6666<<<<<<6xAAxt6666xGR",
"xxAGGxxg<<<<<<<<<<<<6xx6,<<<<fxx"
};
