/* XPM */
static const char *floor[] = {
/* columns rows colors chars-per-pixel */
"32 32 66 1 ",
"  c #738A8C",
". c #748A8C",
"X c #748B8C",
"o c #748B8D",
"O c #758B8D",
"+ c #758C8D",
"@ c #748C8E",
"# c #758C8E",
"$ c #758C8F",
"% c #758D8F",
"& c #768D8F",
"* c #768D90",
"= c #768E90",
"- c #778E90",
"; c #778E91",
": c #778F91",
"> c #788F91",
", c #788F92",
"< c #789092",
"1 c #799092",
"2 c #789093",
"3 c #799093",
"4 c #799193",
"5 c #799194",
"6 c #7A9194",
"7 c #7A9294",
"8 c #7A9295",
"9 c #7B9295",
"0 c #7B9395",
"q c #7B9396",
"w c #7C9396",
"e c #7B9496",
"r c #7C9496",
"t c #7C9497",
"y c #7D9497",
"u c #7C9597",
"i c #7D9598",
"p c #7D9599",
"a c #7D9698",
"s c #7D9699",
"d c #7E9699",
"f c #7E9799",
"g c #7E979A",
"h c #7F989A",
"j c #7F989B",
"k c #7F999B",
"l c #80999B",
"z c #80999C",
"x c #819A9D",
"c c #819B9D",
"v c #819B9E",
"b c #829B9E",
"n c #829C9E",
"m c #829C9F",
"M c #839C9F",
"N c #839D9F",
"B c #839DA0",
"V c #849DA0",
"C c #849DA1",
"Z c #849EA0",
"A c #849EA1",
"S c #849EA2",
"D c #849FA2",
"F c #859FA2",
"G c #859FA3",
"H c #85A0A3",
/* pixels */
"#fFFFB4#yfffffffffff5O4fffffff;O",
"hFFFFFB;4fffffffffff;#ffffffff5#",
"FFFFFFFz#5fffffffff4 #ffffffff5y",
"FFFFFFFF4#yfyfffff4;5#4fyfffff;z",
"FFFFFFFF;O#5fyyff4;nFn45fyfff>Oe",
"zFFFFFF5O###5fff>;nFFFB;4fff;O#O",
"#zFFFF5O#####>4; fHBFFFzO>5;>ww4",
"4;zFn4O5f5O##OOOO4FFFFF5OOO4ffff",
"f5#;##yfff>O##OO#O5FFFfO#O4fyyyy",
"ff5OOwffffy#OO;554O5zyO#O4ffyfff",
"fff5O5fffff>O4ffff5O#O##4fffffff",
"ffff4#ffff5#5ffffyf5###;ffffffff",
"ffffw#;yy>O5ffffffyf5OO5ffffffff",
"ffff5####O5ffffffffyf4O4fyffffff",
"ffff;###O>fyffffffffff;Owfffffff",
"fff>O###O5fyffffffffff5O;yffffff",
"ff4O#OOOO4ffffffffffyf5O#;ffffff",
"f>OO#45>O#yffffffffyff;OOO;fffff",
";O#O4fff5##fffffffyyf4O#55O#yffy",
"O#O;fffffw#>fffffyff4O;zFFfO#44#",
"#O#yffffffy#4ffffff4O;zFFFFf#OO#",
"#O4ffffffff>O4fffw;O#zFFFFFFf###",
"#O5fyfffffy##O;44##OfFFFFFFFF5O#",
"#O;yfyffff4O##OOO##OhFFFFFFFFyO#",
"O#O;yffff5##OOOO###O4FFFFFFFz##;",
"yO###5ff5###O;>#O###O4FFFFFn#;nB",
"FfO###;>####5fff4O###O5FFFz;;nFF",
"FF5O#######5fyyff4O###O4hf;OzFFF",
"FF5O######wfffffff4O#O#OO O#zFFF",
"Ff#######5fffffffff>O####>5;;nFF",
"5OO#####4fffffffffff#O##5fff#;zB",
"OO5zz4O#yfffffffffff5OO4fffff;#;"
};
