/* XPM */
static const char *player[] = {
/* columns rows colors chars-per-pixel */
"32 32 150 2 ",
"   c #151616",
".  c #16171A",
"X  c #17181A",
"o  c #1A1A1A",
"O  c #201F1A",
"+  c #2A261B",
"@  c #26241B",
"#  c #352E1B",
"$  c #392F1A",
"%  c #37301C",
"&  c #3A321C",
"*  c #212121",
"=  c #373739",
"-  c #4B3E1E",
";  c #41381D",
":  c #491D26",
">  c #55451D",
",  c #57491F",
"<  c #725419",
"1  c #7A5919",
"2  c #6F5B20",
"3  c #715C20",
"4  c #7B6421",
"5  c #766121",
"6  c #414141",
"7  c #474849",
"8  c #5A5A5A",
"9  c #656669",
"0  c #852933",
"q  c #922737",
"w  c #8F6619",
"e  c #856019",
"r  c #9F7119",
"t  c #A87719",
"y  c #A57619",
"u  c #A75B2F",
"i  c #856C22",
"p  c #8C7122",
"a  c #907523",
"s  c #9C7E24",
"d  c #B96A30",
"f  c #D5563D",
"g  c #DB663B",
"h  c #E17439",
"j  c #BA2841",
"k  c #C82B44",
"l  c #827E71",
"z  c #CF4041",
"x  c #B68019",
"c  c #BE8519",
"v  c #A28324",
"b  c #AA8825",
"n  c #B58E23",
"m  c #B59126",
"M  c #BB9626",
"N  c #BE9826",
"B  c #C08719",
"V  c #CF9118",
"C  c #D99718",
"Z  c #DE9B18",
"A  c #FDAE16",
"S  c #F5AB19",
"D  c #FDAF18",
"F  c #FDB117",
"G  c #FEB21A",
"H  c #FDB91E",
"J  c #C6802E",
"K  c #C19A26",
"L  c #EF992D",
"P  c #E58235",
"I  c #EB9134",
"U  c #CDA427",
"Y  c #CFA528",
"T  c #D0A528",
"R  c #D9AD28",
"E  c #D4A726",
"W  c #DEB129",
"Q  c #F9AF22",
"!  c #E4B529",
"~  c #E9B929",
"^  c #FDBD22",
"/  c #F9B929",
"(  c #F5AD30",
")  c #FDBA36",
"_  c #FEC226",
"`  c #F5C22A",
"'  c #FDC629",
"]  c #FEC92B",
"[  c #FFCC34",
"{  c #FECD3B",
"}  c #9A8F6C",
"|  c #9D926E",
" . c #85837E",
".. c #A8996B",
"X. c #CDB468",
"o. c #D9BE6E",
"O. c #CEBA7E",
"+. c #FECF42",
"@. c #FFD044",
"#. c #FED14A",
"$. c #FECC5D",
"%. c #FFD451",
"&. c #EDC961",
"*. c #FECB6A",
"=. c #FFDA6C",
"-. c #FCD568",
";. c #FEDC76",
":. c #FED37E",
">. c #FFDD79",
",. c #F6D375",
"<. c #8C8C8C",
"1. c #969594",
"2. c #9B9B98",
"3. c #A39A80",
"4. c #AFAA9B",
"5. c #A3A4A4",
"6. c #B8B8B8",
"7. c #B6B6B9",
"8. c #C7BEA5",
"9. c #ECD89C",
"0. c #FEDC9B",
"q. c #FFE284",
"w. c #FEE28A",
"e. c #FFE395",
"r. c #FFE59A",
"t. c #DCD5BE",
"y. c #FEE7A1",
"u. c #FFE8A6",
"i. c #FEE3AD",
"p. c #FEE8B8",
"a. c #FFECB5",
"s. c #BFBFC0",
"d. c #D5D4D4",
"f. c #DEDEDF",
"g. c #E2DDCB",
"h. c #FFF0C5",
"j. c #FEF0CC",
"k. c #FFF4D5",
"l. c #FFF8D7",
"z. c #FFF5DA",
"x. c #E0E0E2",
"c. c #FFF9E4",
"v. c #FFFDF6",
"b. c #FFFFFF",
"n. c #FEFEFF",
"m. c #FFFEFC",
"M. c #FBFAF9",
"N. c #F2F2F2",
"B. c None",
"V. c black",
/* pixels */
"B.B.B.B.B.B.B.B.B.B.B.B.B.B.B.B.B.B.B.B.B.B.B.B.B.B.B.B.B.B.B.B.",
"B.B.B.B.B.B.B.B.B.B.B.B.B.B.B.o o o o o o o B.B.B.B.B.B.B.B.B.B.",
"B.B.B.B.B.B.B.B.B.B.o o o X X o o @ O O O o X o o B.B.B.B.B.B.B.",
"B.B.B.B.B.B.B.o o X o O # , 4 v m K K K N b 4 & o o B.B.B.B.B.B.",
"B.B.B.B.B.o o o + , p N ! ` ] ] ] ] ] ] ] ] ] W 4 O o B.B.B.B.B.",
"B.B.B.B.o o % i T ` ] ] ] ] ] ] _ ^ ^ ^ _ ' ] ] ` a o o B.B.B.B.",
"B.B.B.o o 3 R ] ] ] ] ] ] ] ] ^ F D D D F H ^ ' ] ` 3 o o B.B.B.",
"B.B.o O a ` ] ' ^ ^ ^ _ ' ] ] _ ^ ^ ^ H F G ^ _ ] ] R % o B.B.B.",
"B.o o 4 ` ] ^ F D F G ^ _ ] ] ] ] ] ] ] ' ' ' ' ] ] ] i o o B.B.",
"B.o & W ] _ F D G H _ ' ] ] ] ] ] ] ] ] ] ] ] ] ] ] ] U + o B.B.",
"o X 5 ] ] G F G ^ ' ] ] ] ] ] ] ] ] ] { +.{ [ ] ] ] ] ` > X B.B.",
"o o v ] ] ^ _ _ ' ] ] ] ] ] ] ] ] [ w.l.c.k.u.>.#.] ] ] p X o B.",
"o o M ] ] ] ] ] ] ] ' ] ] ] ] ] ] w.d.7.f.m.v.a.w.@.] ] M O o B.",
"o o N ] ] ] ] { ;.e.q.=.%.[ ] ] @.8.= o 6 d.m.z.r.=.] ] W # o B.",
"o o m ] ] ] @.h.m.x.s.g.9.,.{ ] %.l   o   2.m.c.r.>.] ] ` > X B.",
"o o s ] ] ] u.m.d.6 o 7 4...&.] @.3.o   * 6.m.z.e.-.' ' ] 4 X o ",
"o X 4 ] ] { k.m.<.  o X  .} X.[ ] ,.1.9 5.M.v.i.:.) H ^ ] s o o ",
"B.X > ` ] { k.m.5.o   o 2.| o.[ ] [ q.j.c.j.0.*.) D G ^ ] m o o ",
"B.o # W ] ] y.m.N.<.8 1.t.O.-.] ] ] ] [ { [ / G F H ^ ' ] N o o ",
"B.o O M ] ] { p.m.m.M.c.y.;.{ ~ U ~ ~ ` ] ] ' ' ' ] ] _ ] n o o ",
"B.o X p ] ^ F / $.:.=.$.#.[ T - @ ; 4 b ~ ] ] ] ] ] ^ H ^ y o o ",
"B.B.X > ` G D A A F H _ ] ' 2 . o o & i n ` ] ] ' ^ D F F < X o ",
"B.B.o + U _ G G ^ ^ _ ] ] / - : 0 q 0 d J / ] _ G D D F Z $ o B.",
"B.B.o o i ] ] ] ] ] ] ] ] ` u j k k z h I _ ^ F D D F S 1 o o B.",
"B.B.B.o # E ] ] ] ] ] ] ] ] ( g f g P L Q F D D D F S w O o B.B.",
"B.B.B.o o < S H ^ _ ' ' ' ' ' _ / ^ G F D D D F F C < o o B.B.B.",
"B.B.B.B.o o w S F F F F F F F F D D D F F F S V e # o o B.B.B.B.",
"B.B.B.B.B.o O 1 Z D F F F F F F F F S Z c w > + o o o B.B.B.B.B.",
"B.B.B.B.B.B.o o $ 1 t c B c B x r 1 > # O o X o o B.B.B.B.B.B.B.",
"B.B.B.B.B.B.B.o o X o O O O O o o X X o o o B.B.B.B.B.B.B.B.B.B.",
"B.B.B.B.B.B.B.B.B.B.o o o o o o o B.B.B.B.B.B.B.B.B.B.B.B.B.B.B.",
"B.B.B.B.B.B.B.B.B.B.B.B.B.B.B.B.B.B.B.B.B.B.B.B.B.B.B.B.B.B.B.B."
};
