/* XPM */
static const char *player[] = {
/* columns rows colors chars-per-pixel */
"32 32 41 1 ",
"  c gray10",
". c #28231A",
"X c #28251B",
"o c #37301C",
"O c #53461E",
"+ c #705C20",
"@ c gray44",
"# c #8C7122",
"$ c #8C7223",
"% c #D24F3E",
"& c #E27B37",
"* c #C62D43",
"= c #8C7F57",
"- c #B79226",
"; c #C48A19",
": c #D29318",
"> c #FDAF18",
", c #FDB019",
"< c #FDB119",
"1 c #FDB41B",
"2 c #FDB71E",
"3 c #C59D27",
"4 c #D3A828",
"5 c #FDBC21",
"6 c #FEBF23",
"7 c #FEBF24",
"8 c #F0BE2A",
"9 c #F2A730",
"0 c #FEC92B",
"q c #FECB32",
"w c #FFDA6D",
"e c #FFDD7B",
"r c magenta",
"t c #FED78C",
"y c #FFE495",
"u c #C6C6C6",
"i c gray83",
"p c #E2E2E2",
"a c #FFF8E5",
"s c #F8F7F5",
"d c white",
/* pixels */
"rrrrrrrrrrrrrrrrrrrrrrrrrrrrrrrr",
"rrrrrrrrrrrrrr         rrrrrrrrr",
"rrrrrrrrrr               rrrrrrr",
"rrrrrrr       $0000000o   rrrrrr",
"rrrrr     00000000000000X  rrrrr",
"rrrr   8000000000>>5500004  rrrr",
"rrr  O000000000>>>>>>55000   rrr",
"rr  00002>750000000>>>55000  rrr",
"r  -001>>>>5500000000000000   rr",
"r  000>>,5700000000000000000  rr",
"  +00>>550000000000000000000  rr",
"  000>050000000000adddyy0000o  r",
"  000000000000000ddddddyy0000  r",
"  0000000dqy00000d   dddyy000  r",
"  00000dddddyy000    dddyy000  r",
"  0000ddd   d=y00i   dddyy000  r",
"r O000dd    d=y00wu dddtt>5503  ",
"r  000ddp   d=y0000dddtt>>5500  ",
"r  000ddd@ dsye0000000>>>55000  ",
"r  0000dddddyy0000000000000,0>  ",
"r  40>>>>>55000   $$000000,>>>  ",
"rr  0>>>>>5500     $$0000>>>>  r",
"rr  00>>550000  ***&&000>>>>>  r",
"rr  $000000000*****&&0>>>>>>   r",
"rrr  0000000000**%&9>>>>>>>.  rr",
"rrr   >>500000000>>>>>>>>>   rrr",
"rrrr  :>>>>>>>>>>>>>>>>>    rrrr",
"rrrrr   >>>>>>>>>>>>>      rrrrr",
"rrrrrr    >>>>>>;        rrrrrrr",
"rrrrrrr               rrrrrrrrrr",
"rrrrrrrrrr       rrrrrrrrrrrrrrr",
"rrrrrrrrrrrrrrrrrrrrrrrrrrrrrrrr"
};
