/* XPM */
static const char *wall[] = {
/* columns rows colors chars-per-pixel */
"32 32 95 2 ",
"   c #976635",
".  c #976735",
"X  c #986735",
"o  c #9B6936",
"O  c #9F6C38",
"+  c #A8723B",
"@  c #A9723C",
"#  c #A9733C",
"$  c #AA733C",
"%  c #AB743C",
"&  c #AC743D",
"*  c #AC753D",
"=  c #AD753D",
"-  c #AE763D",
";  c #AE763E",
":  c #AF763E",
">  c #B0773E",
",  c #B1783E",
"<  c #B1783F",
"1  c #B2783F",
"2  c #B2793F",
"3  c #B3793F",
"4  c #B57B40",
"5  c #B47B41",
"6  c #B57B41",
"7  c #B67B41",
"8  c #B67C41",
"9  c #B77C41",
"0  c #B87D41",
"q  c #B87D42",
"w  c #B97E42",
"e  c #B97E43",
"r  c #BA7E42",
"t  c #BB7F42",
"y  c #BA7F43",
"u  c #BB7F43",
"i  c #BC8043",
"p  c #BD8043",
"a  c #BA8045",
"s  c #BB8045",
"d  c #BE8144",
"f  c #BF8245",
"g  c #C08344",
"h  c #C18345",
"j  c #C18346",
"k  c #C28445",
"l  c #C18446",
"z  c #C28446",
"x  c #C38546",
"c  c #C58646",
"v  c #C78747",
"b  c #C88847",
"n  c #C7894C",
"m  c #C88848",
"M  c #C98848",
"N  c #C88948",
"B  c #C98948",
"V  c #C98949",
"C  c #CA8948",
"Z  c #CA8949",
"A  c #CA8A48",
"S  c #CA8A49",
"D  c #CB8A49",
"F  c #CD8B49",
"G  c #CE8C49",
"H  c #CC8C4A",
"J  c #CD8C4A",
"K  c #CE8D4A",
"L  c #CF8D4A",
"P  c #CF8D4B",
"I  c #CE8D4C",
"U  c #CE8E4C",
"Y  c #CE8E4D",
"T  c #D08E4B",
"R  c #D18E4B",
"E  c #D18F4B",
"W  c #D28F4B",
"Q  c #D4904C",
"!  c #D5914C",
"~  c #D6924D",
"^  c #D7924D",
"/  c #D7934D",
"(  c #D8934D",
")  c #D8934E",
"_  c #D8944E",
"`  c #D9944E",
"'  c #DA944E",
"]  c #DA954E",
"[  c #C98E52",
"{  c #CE9256",
"}  c #CF9357",
"|  c #D09151",
" . c #D59657",
".. c #D89550",
"X. c None",
/* pixels */
"X.X.( ( ( ( ( ( ^ ^ ( ( ( ( ( ( ( ^ ^ ( ( ( ^ ^ ^ ^ ^ ^ ( ( X.X.",
"X.^ E L L L L L L L L L L L L L L L L L L L L L L L L L L E ^ X.",
"( E L L L B B B B B B B B B B B B B B B B B B B B B B L L L E ( ",
"^ L L L B < - - - - - - - - - - - - - - 5 p p p p 9 < B L L L ^ ",
"^ L L L B - @ @ @ @ @ @ @ @ @ @ @ @ - p E ^ ^ ^ ^ B > B L L L ^ ",
"^ L L L B - @ @ @ @ @ @ @ @ @ @ @ 5 B ( ' ' ' ' ' B > B L L L ^ ",
"^ L L L B - @ @ @ @ @ @ @ @ @ - h ^ ' ' ' ' ' ' ' B > B L L L ^ ",
"^ L L L B - @ @ @ @ @ @ @ % 9 F ( ' ' ' ' ' ' ' L 5 - B L L L ^ ",
"^ L L L B - @ @ @ @ @ @ > v ^ ' ' ' ' ' ' ' ^ h - @ - B L L L ^ ",
"^ L L L B - @ @ @ @ - r L ' ' ' ' ' ' ' ( B 5 @ @ @ - B L L L ^ ",
"^ L L L B - @ @ @ < v ^ ' ' ' ' ' ' ' E f - @ @ @ @ - B L L L ^ ",
"^ L L L B - @ - p E ' ' ' ' ' ' ' ^ b < @ @ @ @ @ @ - B L L L ^ ",
"^ L L L B - < B ^ ' ' ' ' ' ' ' E r - @ @ @ @ @ @ @ - B L L L ^ ",
"^ L L L B > B ' ' ' ' ' ' ' ^ v < @ @ @ @ @ @ @ @ @ - B L L L ^ ",
"^ L L L B > B ' ' ' ' ' ' L r % @ @ @ @ @ @ @ @ @ @ - B L L L ^ ",
"^ L L L B - B ^ ^ ^ ^ Q h - @ @ @ @ @ @ @ @ @ @ @ @ - B L L L ^ ",
"^ L L L B < 9 p r u p 9 - - - - - - - - - - - - - - < B L L L ^ ",
"..L L L F B B B B B B B B B B B B B B B B B B B B B B L L L L ..",
" .| Y Y Y Y Y Y Y Y Y Y Y Y Y Y Y Y Y Y Y Y Y Y Y Y Y Y Y Y |  .",
"n [ { { { { { { { { { { { { { { { { { { { { { { { { { { { { [ n ",
"h r u s s s s s f f f s s s s s s s f s f f f f s s s s s u r h ",
"h r r r 9 @ + + + + + + + + + + + + + + + + + + + + @ 5 r 9 r h ",
"h r r r 5 o                                         o 5 r r r h ",
"h r r r 5 o X X X X X X X X X X X X X   X X X X X   o 5 r r r h ",
"h r r r 5 o X X X X X X X X X X X X X X X X X X X X o 5 r r r h ",
"h r r r 5 o X X X X X X X X X X X X X X X X X X X X o 5 r r r h ",
"h r r r 5 o X X X X X X X X X X X X X X X X X X X X o 5 r r r h ",
"h r r r 5 o   X X X X X X X X X X X X X X X X X X X o 5 r r r h ",
"h r r r 5 O o o o o o o o o o o o o o o o o o o o o O 5 r r r h ",
"h r r r 9 5 5 5 5 5 5 5 5 5 5 5 5 5 5 5 5 5 5 5 5 5 5 9 r r r h ",
"X.f r r r r r r r r r r r r r r r r r r r r r r r r r r r r f X.",
"X.l h h h h h h h h h h h h h h h h h h h h h h h h h h h h l X."
};
