/* XPM */
static const char *wall[] = {
/* columns rows colors chars-per-pixel */
"32 32 38 1 ",
"  c #986735",
". c #AA733C",
"X c #AC753D",
"o c #AF773E",
"O c #B2793F",
"+ c #B57B40",
"@ c #B87D41",
"# c #B87D42",
"$ c #B97E42",
"% c #BB7F42",
"& c #BE8143",
"* c #BD8044",
"= c #BE8144",
"- c #BC8146",
"; c #C18345",
": c #C28346",
"> c #C28446",
", c #C48546",
"< c #CD8B49",
"1 c #CD8C4A",
"2 c #CD8D4C",
"3 c #D08E4B",
"4 c #D28F4B",
"5 c #D38F4B",
"6 c #D6914C",
"7 c #D9934D",
"8 c #D9934E",
"9 c #DA944D",
"0 c #D9944E",
"q c #C68B50",
"w c #CF9051",
"e c #CF9153",
"r c #CE9358",
"t c #DA9957",
"y c #D19458",
"u c #D2975C",
"i c #DC9E60",
"p c magenta",
/* pixels */
"p800000000000000000000000000000p",
"0411111111111111111111111111110p",
"01111111111111111111111111111148",
"01111...............@;;;;+.11110",
"01111..............600000;.11110",
"01111............,0000000;.11110",
"01111..........X000000000;.11110",
"01111.........<000000000&..11110",
"01111.......O0000000004....11110",
"01111......4000000000+.....11110",
"01111....@000000000<.......11110",
"01111...6000000000X........11110",
"01111.;000000000,..........11110",
"01111.000000000............11110",
"01111.0000000&.............11110",
"01111.000006...............11110",
"01111......................11110",
"0111111111111111111111111111111t",
"iw1111111111111111111111111112yw",
">quuuuuuuuuuuuuuuuuuuuuuuuuuur*>",
">@@@@@@@@@@@@@@@@@@@@@@@@@@@@@@>",
">@@@@                      @@@@>",
">@@@@                      @@@@>",
">@@@@                      @@@@>",
">@@@@                      @@@@>",
">@@@@                      @@@@>",
">@@@@                      @@@@>",
">@@@@                      @@@@>",
">@@@@                      @@@@>",
">@@@@@@@@@@@@@@@@@@@@@@@@@@@@@*>",
"p;@@@@@@@@@@@@@@@@@@@@@@@@@@@*>p",
"pp;>>>>>>>>>>>>>>>>>>>>>>>>>>;pp"
};
